# OBJ generated by ONSHAPE BY PTC INC, 1.205 Units = meters
mtllib pool.mtl
g Part 1
v 6.5 4 5 
v 0 4 5 
v 0 4 0 
v -6.5 4 0 
v -6.5 4 5 
v 6.5 4 0 
v -6.5 -4 5 
v -6.5 -4 0 
v 0 -4 5 
v 0 -4 0 
v 6.5 -4 0 
v 6.5 -4 5 
v 6.5 3 3.5 
v 6.5 3 1.7 
v 6.5 -3 1.7 
v 6.5 -3 3.5 
v 7 -3 1.7 
v 7 -3 3.5 
v 7 3 3.5 
v 7 3 1.7 
v 7 4.5 5 
v 7 -4.5 5 
v 7 -4.5 -1 
v 7 4.5 -1 
v 0 4.5 5 
v -7 4.5 5 
v -7 -4.5 5 
v 0 -4.5 5 
v 0 4.5 -1 
v -7 4.5 -1 
v -7 -4.5 -1 
v 0 -4.5 -1 
vn 1.36643e-16 -1 0 
vn 1 0 0 
vn -1.36643e-16 1 0 
vn 0 0 1 
vn -1 0 0 
vn 0 1 0 
vn 0 0 -1 
vn 0 0 1 
vn 0 -1 0 
vn 1 0 0 
vn 0 0 1 
vn 0 1 0 
vn -1 0 0 
vn 0 -1 0 
vn 0 0 -1 
usemtl 0.615686_0.811765_0.929412_0.000000_0.000000
o mesh0
f 1//1 2//1 3//1 
f 4//1 3//1 2//1 
f 2//1 5//1 4//1 
f 3//1 6//1 1//1 
o mesh1
f 7//2 8//2 4//2 
f 4//2 5//2 7//2 
o mesh2
f 7//3 9//3 10//3 
f 11//3 10//3 9//3 
f 9//3 12//3 11//3 
f 10//3 8//3 7//3 
o mesh3
f 8//4 10//4 3//4 
f 6//4 3//4 10//4 
f 10//4 11//4 6//4 
f 3//4 4//4 8//4 
o mesh4
f 12//5 1//5 13//5 
f 1//5 6//5 14//5 
f 14//5 13//5 1//5 
f 6//5 11//5 15//5 
f 15//5 14//5 6//5 
f 12//5 16//5 15//5 
f 15//5 11//5 12//5 
f 13//5 16//5 12//5 
o mesh5
f 17//6 15//6 16//6 
f 16//6 18//6 17//6 
o mesh6
f 16//7 13//7 19//7 
f 19//7 18//7 16//7 
o mesh7
f 20//8 14//8 15//8 
f 15//8 17//8 20//8 
o mesh8
f 13//9 14//9 20//9 
f 20//9 19//9 13//9 
o mesh9
f 21//10 19//10 20//10 
f 21//10 22//10 18//10 
f 22//10 23//10 17//10 
f 23//10 24//10 20//10 
f 18//10 19//10 21//10 
f 20//10 17//10 23//10 
f 17//10 18//10 22//10 
f 20//10 24//10 21//10 
o mesh10
f 25//11 2//11 1//11 
f 25//11 26//11 5//11 
f 5//11 2//11 25//11 
f 26//11 27//11 7//11 
f 28//11 22//11 12//11 
f 28//11 9//11 7//11 
f 7//11 5//11 26//11 
f 7//11 27//11 28//11 
f 12//11 9//11 28//11 
f 22//11 21//11 1//11 
f 1//11 12//11 22//11 
f 1//11 21//11 25//11 
o mesh11
f 26//12 25//12 29//12 
f 24//12 29//12 25//12 
f 25//12 21//12 24//12 
f 29//12 30//12 26//12 
o mesh12
f 27//13 26//13 30//13 
f 30//13 31//13 27//13 
o mesh13
f 22//14 28//14 32//14 
f 31//14 32//14 28//14 
f 28//14 27//14 31//14 
f 32//14 23//14 22//14 
o mesh14
f 23//15 32//15 29//15 
f 30//15 29//15 32//15 
f 32//15 31//15 30//15 
f 29//15 24//15 23//15 
